<svg width="24" height="24" viewBox="0 0 24 24" fill="none" xmlns="http://www.w3.org/2000/svg">
<path d="M19 9.75024L18.2503 9.73018C18.2501 9.73687 18.25 9.74356 18.25 9.75024H19ZM5 9.75024H5.75C5.75 9.74431 5.74993 9.73838 5.74979 9.73245L5 9.75024ZM5.68 6.75024L6.34884 7.08959C6.42847 6.93265 6.45037 6.7527 6.41071 6.58124L5.68 6.75024ZM9.74 4.26024L9.32284 4.88353C9.48405 4.99142 9.68079 5.03266 9.87176 4.99858L9.74 4.26024ZM12 4.06024L12 4.81027L12.0066 4.81022L12 4.06024ZM14.26 4.24024L14.1348 4.97972C14.3238 5.01172 14.5179 4.97014 14.6772 4.86353L14.26 4.24024ZM18.32 6.73024L17.5893 6.56124C17.5496 6.73274 17.5715 6.91274 17.6512 7.06971L18.32 6.73024ZM10.5483 15.5119C10.8309 15.2091 10.8145 14.7345 10.5117 14.4519C10.2088 14.1693 9.73426 14.1857 9.45166 14.4886L10.5483 15.5119ZM9 17.5802H9.75005L9.74995 17.5718L9 17.5802ZM8.25 21.0002C8.25 21.4145 8.58579 21.7502 9 21.7502C9.41421 21.7502 9.75 21.4145 9.75 21.0002H8.25ZM14.5483 14.4886C14.2657 14.1857 13.7912 14.1693 13.4883 14.4519C13.1855 14.7345 13.1691 15.2091 13.4517 15.5119L14.5483 14.4886ZM15 17.5802L14.25 17.5718V17.5802H15ZM14.25 21.0002C14.25 21.4145 14.5858 21.7502 15 21.7502C15.4142 21.7502 15.75 21.4145 15.75 21.0002H14.25ZM9.2775 19.747C9.66232 19.5938 9.85003 19.1576 9.69677 18.7727C9.54352 18.3879 9.10732 18.2002 8.7225 18.3535L9.2775 19.747ZM6.18 19.4102L5.93723 20.1199C5.98566 20.1364 6.03566 20.148 6.08645 20.1544L6.18 19.4102ZM4.28 16.9402L4.72254 16.3347L4.71619 16.3301L4.28 16.9402ZM3.03113 15.7509C2.61727 15.7337 2.26784 16.0553 2.25065 16.4691C2.23346 16.883 2.55502 17.2324 2.96887 17.2496L3.03113 15.7509ZM18.25 9.75024C18.25 11.0798 17.8249 12.1604 16.912 12.9254C15.9783 13.7078 14.4275 14.2502 12 14.2502V15.7502C14.6225 15.7502 16.5717 15.1676 17.8755 14.0751C19.2001 12.9651 19.75 11.4207 19.75 9.75024H18.25ZM12 14.2502C9.57251 14.2502 8.02168 13.7078 7.08797 12.9254C6.1751 12.1604 5.75 11.0798 5.75 9.75024H4.25C4.25 11.4207 4.7999 12.9651 6.12453 14.0751C7.42832 15.1676 9.37749 15.7502 12 15.7502V14.2502ZM5.74979 9.73245C5.72803 8.81553 5.93385 7.90751 6.34884 7.08959L5.01116 6.4109C4.48401 7.44988 4.22257 8.6033 4.25021 9.76804L5.74979 9.73245ZM6.41071 6.58124C6.25813 5.92158 6.21355 5.18911 6.28347 4.60281C6.31851 4.30906 6.37864 4.08355 6.44685 3.93205C6.51856 3.77278 6.56581 3.76609 6.53172 3.7829L5.86828 2.43759C5.46919 2.6344 5.22644 2.98896 5.07908 3.31625C4.92823 3.65131 4.84024 4.03767 4.79403 4.42517C4.70145 5.20138 4.76186 6.10891 4.94929 6.91925L6.41071 6.58124ZM6.53172 3.7829C6.54384 3.77692 6.62216 3.74776 6.81385 3.76538C6.99847 3.78235 7.23516 3.83801 7.51578 3.93799C8.0766 4.13781 8.72322 4.48221 9.32284 4.88353L10.1572 3.63696C9.48678 3.18828 8.7284 2.77768 8.01922 2.525C7.66484 2.39873 7.30027 2.30377 6.95115 2.27167C6.60909 2.24023 6.22116 2.26357 5.86828 2.43759L6.53172 3.7829ZM9.87176 4.99858C10.5742 4.87322 11.2864 4.8102 12 4.81024L12 3.31024C11.1981 3.31019 10.3977 3.38103 9.60824 3.52191L9.87176 4.99858ZM12.0066 4.81022C12.7196 4.80395 13.4318 4.86067 14.1348 4.97972L14.3852 3.50077C13.5951 3.36698 12.7947 3.30323 11.9934 3.31027L12.0066 4.81022ZM14.6772 4.86353C15.2679 4.46813 15.9305 4.12973 16.5038 3.9316C16.7909 3.83233 17.0338 3.77594 17.2205 3.75758C17.4215 3.7378 17.4815 3.76952 17.4646 3.76106L18.1354 2.41942C17.7885 2.24597 17.3998 2.23269 17.0736 2.26479C16.733 2.29829 16.3703 2.39065 16.0137 2.51389C15.2995 2.76076 14.5221 3.16235 13.8428 3.61696L14.6772 4.86353ZM17.4646 3.76106C17.402 3.72978 17.4446 3.71957 17.5208 3.89313C17.5896 4.04975 17.6522 4.28224 17.6914 4.58044C17.7696 5.17607 17.7392 5.91324 17.5893 6.56124L19.0507 6.89925C19.2408 6.07725 19.2804 5.15942 19.1786 4.38504C19.1278 3.99825 19.0379 3.61699 18.8942 3.28986C18.7579 2.97966 18.528 2.61571 18.1354 2.41942L17.4646 3.76106ZM17.6512 7.06971C18.0691 7.89291 18.275 8.80734 18.2503 9.73018L19.7497 9.77031C19.7811 8.59804 19.5196 7.43647 18.9888 6.39078L17.6512 7.06971ZM9.45166 14.4886C8.6674 15.329 8.23706 16.4393 8.25005 17.5887L9.74995 17.5718C9.74132 16.808 10.0273 16.0703 10.5483 15.5119L9.45166 14.4886ZM8.25 17.5802V21.0002H9.75V17.5802H8.25ZM13.4517 15.5119C13.9727 16.0703 14.2587 16.808 14.25 17.5718L15.75 17.5887C15.7629 16.4393 15.3326 15.329 14.5483 14.4886L13.4517 15.5119ZM14.25 17.5802V21.0002H15.75V17.5802H14.25ZM8.7225 18.3535C7.94569 18.6628 7.10317 18.7704 6.27355 18.6661L6.08645 20.1544C7.16747 20.2903 8.26529 20.1501 9.2775 19.747L8.7225 18.3535ZM6.42277 18.7006C6.15596 18.6093 6.00801 18.4944 5.91143 18.386C5.80823 18.2703 5.73055 18.125 5.65133 17.9217C5.61045 17.8168 5.5754 17.7137 5.53082 17.5867C5.48894 17.4674 5.43913 17.3286 5.37848 17.191C5.25562 16.9123 5.06653 16.5861 4.72251 16.3347L3.83749 17.5458C3.88347 17.5794 3.93688 17.6394 4.0059 17.796C4.04118 17.8761 4.07466 17.9672 4.11551 18.0836C4.15366 18.1923 4.2008 18.3306 4.25367 18.4663C4.36195 18.7442 4.51802 19.0771 4.79169 19.3841C5.07199 19.6986 5.44404 19.9511 5.93723 20.1199L6.42277 18.7006ZM4.71619 16.3301C4.22275 15.9774 3.63718 15.7761 3.03113 15.7509L2.96887 17.2496C3.28355 17.2627 3.5876 17.3672 3.84381 17.5504L4.71619 16.3301Z" fill="#353E50"/>
</svg>
