<svg width="24" height="24" viewBox="0 0 24 24" fill="none" xmlns="http://www.w3.org/2000/svg">
<path d="M12 3C7.02944 3 3 7.02944 3 12C3 16.9706 7.02944 21 12 21C16.9706 21 21 16.9706 21 12C21 7.02944 16.9706 3 12 3Z" stroke="#353E50" stroke-width="1.5" stroke-linecap="round" stroke-linejoin="round"/>
<path d="M8.47058 11.6043V15.4999M11.4824 10.0461V15.4999M16 15.4999C16 15.4999 16 13.0067 16 11.6043C16 9.26701 12.8376 9.50075 11.4823 11.2927" stroke="#353E50" stroke-width="1.5" stroke-miterlimit="10" stroke-linecap="round" stroke-linejoin="round"/>
<path d="M8.5 9.5C8.77614 9.5 9 9.27614 9 9C9 8.72386 8.77614 8.5 8.5 8.5C8.22386 8.5 8 8.72386 8 9C8 9.27614 8.22386 9.5 8.5 9.5Z" fill="#353E50" stroke="#353E50" stroke-width="1.5" stroke-linecap="round" stroke-linejoin="round"/>
</svg>
